<svg xmlns="http://www.w3.org/2000/svg" xmlns:xlink="http://www.w3.org/1999/xlink" width="33.404" height="23.015" viewBox="0 0 33.404 23.015">
  <defs>
    <clipPath id="clip-path">
      <rect id="Rectangle_134" data-name="Rectangle 134" width="33.404" height="23.015" fill="#37338d"/>
    </clipPath>
  </defs>
  <g id="Group_206" data-name="Group 206" transform="translate(-351.459 -284.517)">
    <g id="Group_205" data-name="Group 205" transform="translate(351.459 284.517)">
      <g id="Group_204" data-name="Group 204" clip-path="url(#clip-path)">
        <path id="Path_130" data-name="Path 130" d="M0,74.438a1.265,1.265,0,0,1,1.348-.792c1.032.035,2.065.009,3.1.009a1.109,1.109,0,0,1,1.3.994c.223.85.456,1.7.664,2.552.061.25.171.312.421.311,2.935-.01,5.871-.006,8.806-.006H16c-.06,5.781,2.712,9.324,8.283,10.752-.039.691-.352,1.015-1.164,1.152.406,1.78,0,3.054-1.232,3.9a3.288,3.288,0,0,1-3.736-.012c-1.224-.853-1.629-2.137-1.215-3.9H14.522a3.248,3.248,0,0,1-1.5,4.056,3.035,3.035,0,0,1-3.551-.236A3.253,3.253,0,0,1,8.336,89.4c-.7-.02-1.019-.424-1.186-1.074-1.044-4.068-2.115-8.129-3.162-12.2-.081-.316-.21-.4-.521-.392-.695.024-1.393-.022-2.087.016A1.265,1.265,0,0,1,0,74.96ZM10.228,90.58A1.191,1.191,0,0,0,11.4,91.8a1.206,1.206,0,0,0,1.229-1.2,1.219,1.219,0,0,0-1.2-1.208,1.2,1.2,0,0,0-1.2,1.195m11,.017a1.2,1.2,0,1,0-2.4.012,1.2,1.2,0,0,0,2.4-.012" transform="translate(0 -70.91)" fill="#37338d"/>
        <path id="Path_131" data-name="Path 131" d="M495.37,15.287a7.643,7.643,0,1,1,7.664-7.6,7.643,7.643,0,0,1-7.664,7.6m-1.022-6.6c0,.457-.011.878,0,1.3a1.017,1.017,0,0,0,.711.92.946.946,0,0,0,1.106-.329,1.859,1.859,0,0,0,.253-.782,9.686,9.686,0,0,0,.01-1.107c.414,0,.771,0,1.129,0a1.047,1.047,0,1,0,0-2.087c-.366,0-.733,0-1.132,0,0-.413.007-.791,0-1.168a1.044,1.044,0,1,0-2.085,0c-.005.377,0,.754,0,1.165-.416,0-.793,0-1.171,0a1.044,1.044,0,1,0,0,2.086c.377,0,.755,0,1.173,0" transform="translate(-469.63 0)" fill="#37338d"/>
      </g>
    </g>
  </g>
</svg>
