<svg xmlns="http://www.w3.org/2000/svg" xmlns:xlink="http://www.w3.org/1999/xlink" width="27.483" height="27.47" viewBox="0 0 27.483 27.47">
  <defs>
    <clipPath id="clip-path">
      <rect id="Rectangle_123" data-name="Rectangle 123" width="27.483" height="27.47" fill="#37338d"/>
    </clipPath>
  </defs>
  <g id="Group_186" data-name="Group 186" clip-path="url(#clip-path)">
    <path id="Path_104" data-name="Path 104" d="M24.971,59.884H18.9l.047-.805c.412,0,.805.012,1.2-.007a.606.606,0,0,0,.37-.146q1.757-1.735,3.492-3.491a.582.582,0,0,0,.149-.368q.017-1.623,0-3.247a.619.619,0,0,0-.165-.388q-1.716-1.738-3.454-3.454a.619.619,0,0,0-.388-.166q-1.624-.02-3.248,0a.619.619,0,0,0-.388.167q-1.738,1.716-3.454,3.454a.619.619,0,0,0-.166.388q-.02,1.623,0,3.247a.582.582,0,0,0,.15.368q1.735,1.756,3.492,3.491a.606.606,0,0,0,.37.146c.4.019.8.007,1.2.007l.045.805H0V41.79H.806c0,.411-.012.8.007,1.2a.606.606,0,0,0,.15.368Q2.7,45.11,4.454,46.846a.545.545,0,0,0,.343.146q1.65.016,3.3,0a.546.546,0,0,0,.342-.149q1.755-1.736,3.491-3.492a.582.582,0,0,0,.146-.37q.017-1.623,0-3.247a.582.582,0,0,0-.15-.368q-1.735-1.756-3.491-3.492a.545.545,0,0,0-.344-.145q-1.637-.016-3.274,0a.582.582,0,0,0-.367.151Q2.693,37.616.957,39.372a.605.605,0,0,0-.145.37c-.018.4-.007.8-.007,1.2L0,40.985V34.918H12.895V47H24.971ZM6.434,59.078c.537,0,1.074-.006,1.61,0a.528.528,0,0,0,.421-.172c1.147-1.156,2.3-2.3,3.446-3.461a.619.619,0,0,0,.164-.389q.019-1.623,0-3.246a.582.582,0,0,0-.15-.368q-1.735-1.756-3.491-3.491a.546.546,0,0,0-.344-.145q-1.637-.016-3.274,0a.581.581,0,0,0-.368.151Q2.693,49.7.958,51.452a.582.582,0,0,0-.146.369q-.017,1.623,0,3.246a.581.581,0,0,0,.151.367q1.726,1.747,3.473,3.472a.633.633,0,0,0,.389.164c.536.018,1.073.008,1.61.008M.82,46.975H3.357L.82,44.441Zm11.253-2.5-2.533,2.5h2.533ZM.816,50.333l2.513-2.513H.816Zm8.762-2.521L12.064,50.3V47.812Zm5.878.01H12.909v2.55l2.547-2.55m8.7,0H21.651l2.507,2.505ZM.822,35.733v2.515l2.515-2.515Zm8.7,0,2.545,2.542V35.734ZM.824,56.51v2.549H3.375L.824,56.51m11.248.005L9.531,59.058h2.541Zm.826,2.548H15.42L12.9,56.542ZM24.155,56.55l-2.519,2.513h2.519Z" transform="translate(0 -32.414)" fill="#37338d"/>
    <path id="Path_105" data-name="Path 105" d="M216.805,12.852H203.95V0h12.855Zm-.794-6.423c0-.555.007-1.109-.006-1.663a.516.516,0,0,0-.133-.322q-1.756-1.773-3.529-3.529a.473.473,0,0,0-.3-.123q-1.664-.013-3.328,0a.509.509,0,0,0-.322.134q-1.774,1.756-3.53,3.528a.473.473,0,0,0-.124.3q-.013,1.664,0,3.327a.508.508,0,0,0,.134.322q1.756,1.773,3.529,3.529a.473.473,0,0,0,.3.124q1.677.013,3.355,0a.437.437,0,0,0,.276-.115q1.782-1.766,3.549-3.548a.479.479,0,0,0,.123-.3c.012-.554.006-1.109.006-1.663m-8.776,5.623L204.754,9.57v2.482Zm6.2-.009h2.558V9.487l-2.558,2.557M207.279.808h-2.521V3.327L207.279.808M213.5.794l2.489,2.489V.794Z" transform="translate(-189.322)" fill="#37338d"/>
    <path id="Path_106" data-name="Path 106" d="M47.891,80h.755a2.892,2.892,0,0,0,2.831,2.83v.756a2.888,2.888,0,0,0-2.828,2.826h-.758a2.889,2.889,0,0,0-2.834-2.826v-.756A2.893,2.893,0,0,0,47.891,80m.4,4.724a3.8,3.8,0,0,1,1.536-1.518A3.752,3.752,0,0,1,48.292,81.7a10.484,10.484,0,0,1-.7.854,9.38,9.38,0,0,1-.809.656,9.676,9.676,0,0,1,.822.67,10.106,10.106,0,0,1,.686.845" transform="translate(-41.825 -74.264)" fill="#37338d"/>
    <path id="Path_107" data-name="Path 107" d="M216.429,248.415h.76a2.891,2.891,0,0,0,2.833,2.831V252a2.893,2.893,0,0,0-2.834,2.83,1.251,1.251,0,0,1-.129.014c-.205,0-.411,0-.625,0A2.893,2.893,0,0,0,213.6,252v-.756c1.964-.444,2.469-.948,2.826-2.834m1.9,3.183a3.781,3.781,0,0,1-1.523-1.526,3.821,3.821,0,0,1-1.55,1.555,3.743,3.743,0,0,1,1.532,1.513,9.962,9.962,0,0,1,.682-.841,10.672,10.672,0,0,1,.86-.7" transform="translate(-198.282 -230.598)" fill="#37338d"/>
    <path id="Path_108" data-name="Path 108" d="M45.073,251.853v-.759a2.887,2.887,0,0,0,2.832-2.83c.065,0,.127-.011.188-.012.187,0,.374,0,.566,0a2.9,2.9,0,0,0,2.834,2.844v.755a2.886,2.886,0,0,0-2.829,2.828h-.758a2.9,2.9,0,0,0-2.834-2.826M49.8,251.5a10.334,10.334,0,0,1-.856-.7,10.02,10.02,0,0,1-.685-.846,3.84,3.84,0,0,1-1.524,1.525,3.824,3.824,0,0,1,1.55,1.549A3.744,3.744,0,0,1,49.8,251.5" transform="translate(-41.84 -230.446)" fill="#37338d"/>
    <path id="Path_109" data-name="Path 109" d="M252.389,51.308h-.776a2.89,2.89,0,0,0-2.83-2.83v-.757A2.886,2.886,0,0,0,251.61,44.9h.759a2.891,2.891,0,0,0,2.823,2.823V48.5a2.842,2.842,0,0,0-2.8,2.811m-.4-1.654a3.825,3.825,0,0,1,1.558-1.559,3.8,3.8,0,0,1-1.562-1.554,3.855,3.855,0,0,1-1.549,1.561,3.821,3.821,0,0,1,1.553,1.552" transform="translate(-230.939 -41.675)" fill="#37338d"/>
    <rect id="Rectangle_121" data-name="Rectangle 121" width="0.774" height="0.773" transform="translate(19.86 1.604)" fill="#37338d"/>
    <rect id="Rectangle_122" data-name="Rectangle 122" width="0.759" height="0.78" transform="translate(21.477 1.6)" fill="#37338d"/>
  </g>
</svg>
