<svg id="Group_283" data-name="Group 283" xmlns="http://www.w3.org/2000/svg" xmlns:xlink="http://www.w3.org/1999/xlink" width="23.411" height="21.961" viewBox="0 0 23.411 21.961">
  <defs>
    <clipPath id="clip-path">
      <rect id="Rectangle_165" data-name="Rectangle 165" width="23.411" height="21.961" fill="#aeaeae"/>
    </clipPath>
  </defs>
  <g id="Group_282" data-name="Group 282" clip-path="url(#clip-path)">
    <path id="Path_762" data-name="Path 762" d="M23.412,6.406v.915c-.04.254-.072.51-.12.763a7.16,7.16,0,0,1-1.824,3.523q-4.593,5.019-9.181,10.042a.7.7,0,0,1-1.171-.006q-4.1-4.489-8.206-8.982a21.207,21.207,0,0,1-1.691-1.979A6.734,6.734,0,0,1,2.547,1.55a6.873,6.873,0,0,1,7.931-.536.736.736,0,0,1,.3,1.181l-2.2,3.664c-.042.07-.08.141-.135.24.07.057.14.105.2.164q1.7,1.7,3.4,3.4c.474.474.472.8-.008,1.278-.717.717-1.432,1.436-2.153,2.148A.264.264,0,0,0,9.8,13.4c.381,1.124.754,2.251,1.129,3.377.016.047.035.092.052.138.036-.791.044-1.573.032-2.356a.972.972,0,0,1,.314-.75q1.672-1.659,3.333-3.33c.058-.058.113-.119.178-.189-.066-.07-.122-.131-.18-.189L11.326,6.771a.735.735,0,0,1-.064-1.143c1.376-1.72,2.757-3.435,4.122-5.164A1.135,1.135,0,0,1,16.344,0,6.916,6.916,0,0,1,20.28,1.136a6.711,6.711,0,0,1,2.862,3.886c.126.451.182.922.27,1.384" transform="translate(0 0)" fill="#aeaeae"/>
  </g>
</svg>
