<svg xmlns="http://www.w3.org/2000/svg" xmlns:xlink="http://www.w3.org/1999/xlink" width="11.717" height="16.663" viewBox="0 0 11.717 16.663">
  <defs>
    <clipPath id="clip-path">
      <rect id="Rectangle_136" data-name="Rectangle 136" width="11.717" height="16.663" fill="#37338d"/>
    </clipPath>
  </defs>
  <g id="Group_208" data-name="Group 208" clip-path="url(#clip-path)">
    <path id="Path_132" data-name="Path 132" d="M5.729,16.664a2.82,2.82,0,0,1-.373-.367c-.983-1.4-1.974-2.8-2.931-4.22A16.741,16.741,0,0,1,.469,8.326,7.375,7.375,0,0,1,0,5.733,5.859,5.859,0,0,1,11.533,4.4a6.366,6.366,0,0,1-.185,3.634,14.887,14.887,0,0,1-1.8,3.645C8.672,13,7.753,14.288,6.855,15.59c-.163.236-.316.48-.493.707a3.742,3.742,0,0,1-.373.367ZM5.855,15.3c.029-.033.044-.048.056-.065.9-1.3,1.816-2.58,2.692-3.892a14.712,14.712,0,0,0,1.8-3.558,5.451,5.451,0,0,0,.228-2.962,4.883,4.883,0,0,0-9.6,1.76,9.251,9.251,0,0,0,.841,2.569,27.075,27.075,0,0,0,2.338,3.824c.541.772,1.09,1.539,1.646,2.324" transform="translate(0 0)" fill="#37338d"/>
    <path id="Path_133" data-name="Path 133" d="M70.31,67.307a2.93,2.93,0,1,1-2.944,2.915,2.934,2.934,0,0,1,2.944-2.915m-.014.977a1.953,1.953,0,1,0,1.953,1.957A1.96,1.96,0,0,0,70.3,68.283" transform="translate(-64.436 -64.38)" fill="#37338d"/>
  </g>
</svg>
