<svg xmlns="http://www.w3.org/2000/svg" xmlns:xlink="http://www.w3.org/1999/xlink" width="14.002" height="14.003" viewBox="0 0 14.002 14.003">
  <defs>
    <clipPath id="clip-path">
      <rect id="Rectangle_162" data-name="Rectangle 162" width="14.002" height="14.003" fill="#7a7a7a"/>
    </clipPath>
  </defs>
  <g id="Group_266" data-name="Group 266" clip-path="url(#clip-path)">
    <path id="Path_143" data-name="Path 143" d="M0,12.909V1.095A2.68,2.68,0,0,1,.125.709,1.212,1.212,0,0,1,1.293,0Q4.28,0,7.268,0h.118V.161q0,1.292,0,2.584c0,.4.137.537.544.537h2.733c0,.039.005.061.005.083,0,.665,0,1.331,0,2a.287.287,0,0,1-.069.167Q9.061,7.353,7.519,9.174a2.112,2.112,0,0,0-.457.861c-.135.548-.27,1.1-.387,1.647a1.283,1.283,0,0,0-.006.513,1.221,1.221,0,0,0,1.726.867c.482-.2.966-.4,1.439-.628a4.272,4.272,0,0,0,.6-.38,2.01,2.01,0,0,0,.228-.217c0,.358.016.712,0,1.064a1.075,1.075,0,0,1-.506.865A3.28,3.28,0,0,1,9.574,14H1.094a.235.235,0,0,0-.05-.02,1.219,1.219,0,0,1-.772-.446A1.527,1.527,0,0,1,0,12.909M5.334,5.771H8.507c.33,0,.519-.149.519-.409s-.189-.411-.517-.411H2.163a1.3,1.3,0,0,0-.137,0,.4.4,0,0,0-.358.274.409.409,0,0,0,.425.544q1.621,0,3.241,0M4.513,7.412H2.106a.413.413,0,1,0,0,.82H6.923a.839.839,0,0,0,.1,0,.41.41,0,0,0-.07-.816c-.811,0-1.623,0-2.434,0m-.424-4.13H6.114a.417.417,0,0,0,.423-.262.411.411,0,0,0-.421-.557q-1.5,0-3.009,0c-.342,0-.684,0-1.026,0a.415.415,0,0,0-.41.262.41.41,0,0,0,.408.557c.67,0,1.34,0,2.01,0m-.4,7.412H5.277a.413.413,0,1,0,.006-.82c-.36,0-.72,0-1.08,0H2.1a.42.42,0,0,0-.425.26.409.409,0,0,0,.405.559c.538,0,1.076,0,1.614,0" transform="translate(0 0)" fill="#7a7a7a"/>
    <path id="Path_144" data-name="Path 144" d="M256.132,185.973l2.268-2.682,1.886,1.581-2.267,2.683-1.887-1.582" transform="translate(-247.359 -177.013)" fill="#7a7a7a"/>
    <path id="Path_145" data-name="Path 145" d="M220.528,281.6a1.463,1.463,0,0,1-.612.518q-.714.307-1.426.62a.419.419,0,0,1-.6-.507q.185-.762.365-1.525a1.411,1.411,0,0,1,.4-.679l1.876,1.573" transform="translate(-210.403 -270.434)" fill="#7a7a7a"/>
    <path id="Path_146" data-name="Path 146" d="M242.323,3.788a.094.094,0,0,1-.059.018c-.1,0-.2,0-.3,0l-.6,0-1.2,0h-.24q0-1.2,0-2.406a2.784,2.784,0,0,1,.873.638l.976.931a2.115,2.115,0,0,1,.55.7c.022.054.03.1,0,.127" transform="translate(-231.704 -1.346)" fill="#7a7a7a"/>
    <path id="Path_147" data-name="Path 147" d="M339.781,145.5l-1.888-1.583a1.869,1.869,0,0,1,.8-.685,1.255,1.255,0,0,1,1.366.4,1.222,1.222,0,0,1,.059,1.418c-.1.15-.218.291-.341.453" transform="translate(-326.319 -138.259)" fill="#7a7a7a"/>
  </g>
</svg>
