<svg xmlns="http://www.w3.org/2000/svg" xmlns:xlink="http://www.w3.org/1999/xlink" width="16.903" height="19.267" viewBox="0 0 16.903 19.267">
  <defs>
    <clipPath id="clip-path">
      <rect id="Rectangle_137" data-name="Rectangle 137" width="16.903" height="19.267" fill="#37338d"/>
    </clipPath>
  </defs>
  <g id="Group_210" data-name="Group 210" clip-path="url(#clip-path)">
    <path id="Path_134" data-name="Path 134" d="M8.152,19.267a6.4,6.4,0,0,1-.907-.282,2.731,2.731,0,0,1-1.507-1.8c-.014-.048-.027-.1-.041-.144,0-.005-.007-.009-.026-.034H5.465q-2.422,0-4.845,0a.564.564,0,0,1-.546-.833A.93.93,0,0,1,.211,16a8.64,8.64,0,0,0,2.241-4.37,13.128,13.128,0,0,0,.173-1.811c.035-.77-.03-1.548.05-2.311A5.663,5.663,0,0,1,5.749,2.933c.315-.175.66-.3,1.013-.453,0-.217,0-.461,0-.7A1.686,1.686,0,0,1,8.158.029.421.421,0,0,0,8.227,0h.451a4.59,4.59,0,0,1,.779.346,1.566,1.566,0,0,1,.682,1.3c.011.281,0,.564,0,.849.249.1.5.181.73.3a5.757,5.757,0,0,1,3.4,5.278c.029.839-.009,1.682.042,2.519a8.482,8.482,0,0,0,1.665,4.54c.221.3.471.585.719.867a.58.58,0,0,1-.45,1.016q-2.4-.005-4.807,0h-.22c-.029.1-.052.194-.085.286a2.779,2.779,0,0,1-2.3,1.941.5.5,0,0,0-.087.031Zm6.963-3.395-.136-.2a9.7,9.7,0,0,1-1.8-5.067c-.048-.806-.021-1.617-.039-2.425a6.627,6.627,0,0,0-.073-.9,4.692,4.692,0,0,0-9.315.843c0,.827.013,1.657-.036,2.482a9.7,9.7,0,0,1-1.785,5.052c-.045.064-.088.129-.144.211ZM6.881,17.013a1.661,1.661,0,0,0,1.712,1.12,1.61,1.61,0,0,0,1.417-1.12ZM9.015,2.269c0-.173,0-.347,0-.52A.862.862,0,0,0,9.007,1.6a.572.572,0,0,0-.533-.47.533.533,0,0,0-.559.429,4.815,4.815,0,0,0-.007.711Z" transform="translate(0.001)" fill="#37338d"/>
    <path id="Path_135" data-name="Path 135" d="M271.859,44.614c0,.069,0,.138,0,.207a.568.568,0,0,1-.548.578.583.583,0,0,1-.581-.566,14.954,14.954,0,0,0-.217-1.747,7.014,7.014,0,0,0-1.848-3.364.916.916,0,0,1-.216-.342.532.532,0,0,1,.266-.623.567.567,0,0,1,.688.11,8.441,8.441,0,0,1,2.458,5.748" transform="translate(-254.957 -36.744)" fill="#37338d"/>
    <path id="Path_136" data-name="Path 136" d="M.031,44.591A8.4,8.4,0,0,1,2.47,38.9a.564.564,0,1,1,.814.777A7.325,7.325,0,0,0,1.16,44.692a1.914,1.914,0,0,1-.009.244.568.568,0,0,1-.582.48.568.568,0,0,1-.536-.551c0-.075,0-.15,0-.275" transform="translate(-0.029 -36.763)" fill="#37338d"/>
  </g>
</svg>
