<svg xmlns="http://www.w3.org/2000/svg" width="62.594" height="104.319" viewBox="0 0 62.594 104.319">
  <g id="Layer_1" data-name="Layer 1" transform="translate(0.004)">
    <path id="Path_76" data-name="Path 76" d="M0,52.167V7.627C0,2.837,2.839,0,7.633,0H55c4.721,0,7.593,2.857,7.593,7.558V96.747c0,4.7-2.874,7.572-7.581,7.572H7.534C2.9,104.319,0,101.43,0,96.813q0-22.325,0-44.65Zm19.5-48.688H7.645c-2.874,0-4.169,1.3-4.169,4.175V96.636c0,2.944,1.278,4.207,4.245,4.21H54.765c3.121,0,4.347-1.219,4.347-4.326V7.863c0-.253,0-.508,0-.761a3.484,3.484,0,0,0-3.635-3.618c-3.4-.017-6.809-.006-10.212-.006H43.093c-.465,1.835-.9,3.589-1.356,5.337a1.8,1.8,0,0,1-2.085,1.614q-8.366.013-16.733,0a1.79,1.79,0,0,1-2.073-1.623c-.456-1.745-.891-3.5-1.356-5.328ZM23.1,3.51c.311,1.225.587,2.329.857,3.4H38.645c.276-1.138.543-2.239.822-3.4Z" transform="translate(0)" fill="#a8a8a8"/>
    <path id="Path_77" data-name="Path 77" d="M48.361,95.812a24.337,24.337,0,1,1-24.392,24.035A24.375,24.375,0,0,1,48.361,95.812ZM69.17,120.155a20.862,20.862,0,1,0-20.757,20.861A20.888,20.888,0,0,0,69.17,120.155Z" transform="translate(-17.012 -67.991)" fill="#a8a8a8"/>
    <path id="Path_78" data-name="Path 78" d="M77.4,162.6c4-4.01,7.906-7.926,11.814-11.84a5.551,5.551,0,0,1,.883-.8,1.717,1.717,0,0,1,2.387,2.349,4.249,4.249,0,0,1-.639.735q-6.515,6.524-13.042,13.042c-1.408,1.408-2.375,1.309-3.484-.343-.987-1.469-1.974-2.938-2.944-4.422-.711-1.086-.587-2.073.3-2.665s1.847-.334,2.581.732c.7,1.01,1.368,2.035,2.151,3.205Z" transform="translate(-51.038 -106.206)" fill="#a8a8a8"/>
  </g>
</svg>
