<svg xmlns="http://www.w3.org/2000/svg" xmlns:xlink="http://www.w3.org/1999/xlink" width="33.417" height="27.534" viewBox="0 0 33.417 27.534">
  <defs>
    <clipPath id="clip-path">
      <rect id="Rectangle_146" data-name="Rectangle 146" width="33.417" height="27.534" fill="#f2f2f2"/>
    </clipPath>
  </defs>
  <g id="Group_223" data-name="Group 223" clip-path="url(#clip-path)">
    <path id="Path_140" data-name="Path 140" d="M33.418,13.878a17.763,17.763,0,0,1-.161,2.307,4.736,4.736,0,0,1-5.384,3.763.464.464,0,0,0-.519.236,12.787,12.787,0,0,1-8.218,5.385.561.561,0,0,0-.46.357,2.78,2.78,0,0,1-3.189,1.528A2.8,2.8,0,0,1,15.7,21.97a2.769,2.769,0,0,1,2.856,1.354.381.381,0,0,0,.5.213A10.9,10.9,0,1,0,6.034,10.644,10.6,10.6,0,0,0,7.062,17.98c.464.888.234,1.464-.721,1.784A4.8,4.8,0,0,1,.034,15.417a26.231,26.231,0,0,1,.059-3.593A4.693,4.693,0,0,1,4.411,7.761a.669.669,0,0,0,.642-.441C7.6,2.433,11.646-.161,17.157.008c5.167.158,8.907,2.8,11.241,7.407a.513.513,0,0,0,.5.336,4.783,4.783,0,0,1,4.488,4.711c.006.471,0,.942,0,1.413l.032,0" transform="translate(0 -0.001)" fill="#f2f2f2"/>
    <path id="Path_141" data-name="Path 141" d="M99.669,49.13a8.465,8.465,0,0,1,.992,16.883,9.1,9.1,0,0,1-2.774-.156.833.833,0,0,0-.527.08c-1.046.585-2.076,1.2-3.119,1.788a1,1,0,0,1-1.557-.714,1.525,1.525,0,0,1,.069-.56q.369-1.413.76-2.82a.474.474,0,0,0-.11-.482,8.476,8.476,0,0,1,5.379-13.954c.331-.05.67-.049.886-.064m.112,9.472a1.006,1.006,0,0,0,1.012-.991,1.008,1.008,0,1,0-2.017-.006,1,1,0,0,0,1,1m-3.36,0a1,1,0,0,0,1.009-.992,1.008,1.008,0,1,0-2.016,0,1,1,0,0,0,1.007.995m6.715,0a1,1,0,0,0,1.022-.979,1.008,1.008,0,1,0-2.015-.028,1,1,0,0,0,.994,1.007" transform="translate(-83.085 -44.715)" fill="#f2f2f2"/>
  </g>
</svg>
