<svg xmlns="http://www.w3.org/2000/svg" xmlns:xlink="http://www.w3.org/1999/xlink" width="23.521" height="26.049" viewBox="0 0 23.521 26.049">
  <defs>
    <clipPath id="clip-path">
      <rect id="Rectangle_124" data-name="Rectangle 124" width="23.521" height="26.049" fill="#37338d"/>
    </clipPath>
  </defs>
  <g id="Group_188" data-name="Group 188" clip-path="url(#clip-path)">
    <path id="Path_110" data-name="Path 110" d="M.315,26.049A.562.562,0,0,1,0,25.465c.016-.245,0-.492.006-.738a1.218,1.218,0,0,1,.659-1.1.355.355,0,0,0,.21-.374Q.87,15.376.873,7.5c0-.492,0-.984,0-1.476A3.065,3.065,0,0,1,3.365,2.95Q10.222,1.481,17.083.025c.367-.078.542.024.646.381A4.2,4.2,0,0,1,18,2.3a3.02,3.02,0,0,1-2.324,2.574Q12.416,5.793,9.15,6.7c-.371.1-.452.208-.452.595q0,2.418,0,4.835v.232c.1-.018.167-.027.235-.045q4.614-1.234,9.227-2.468a3.9,3.9,0,0,1,4.932,2.821c.132.473.258.948.383,1.423.12.452.022.619-.429.745l-.238.067c.04.188.085.366.114.547a1.241,1.241,0,0,1-.862,1.434c-.792.245-1.6.443-2.4.66-.335.091-.67.184-1.007.264a1.3,1.3,0,0,1-1.633-.948c-.036-.12-.067-.241-.105-.38-.919.244-1.817.482-2.715.722-1.75.469-3.5.943-5.252,1.4-.19.05-.255.121-.253.321.009,1.45.007,2.9,0,4.352a.317.317,0,0,0,.189.336,1.276,1.276,0,0,1,.683,1.169c.007.212-.005.424,0,.636a.637.637,0,0,1-.3.626ZM7.807,11.291H1.757V23.434h6.05Zm.019-.891v-.294q0-1.361,0-2.722A1.359,1.359,0,0,1,8.99,5.843q3.217-.9,6.433-1.8A2.208,2.208,0,0,0,16.96.959a1.147,1.147,0,0,0-.168.012Q10.2,2.38,3.6,3.793A2.183,2.183,0,0,0,1.741,6.1q0,2.01,0,4.019V10.4Zm14.74,3.666-.3-1.123a3.047,3.047,0,0,0-3.9-2.251q-4.711,1.261-9.423,2.522a.275.275,0,0,0-.247.326c.007,1.323,0,2.646,0,3.97,0,.08.008.16.013.269l13.856-3.713m-13.9,11.1c.123-.722-.139-.866-.665-.862-2.027.017-4.053.007-6.08.007-.2,0-.407-.006-.61,0a.421.421,0,0,0-.432.413c-.011.141,0,.283,0,.438ZM21.952,15.134l-4.189,1.123c.026.112.043.194.064.275.111.42.288.523.708.415l.417-.11q1.337-.358,2.673-.716c.35-.094.474-.248.432-.549-.019-.139-.066-.275-.106-.438" transform="translate(0 0)" fill="#37338d"/>
    <path id="Path_111" data-name="Path 111" d="M270.914,277.323a3.217,3.217,0,0,1-1.381-.655,2.488,2.488,0,0,1-.744-2.674,18.153,18.153,0,0,1,2.166-3.955c.088-.134.183-.264.3-.431.262.388.524.748.757,1.126a20.017,20.017,0,0,1,1.677,3.157,2.587,2.587,0,0,1-1.9,3.38,1.554,1.554,0,0,0-.162.054Zm.34-6.171c-.2.32-.391.591-.542.883-.375.728-.771,1.449-1.082,2.2a1.577,1.577,0,0,0,.609,1.882,1.746,1.746,0,0,0,2.021.007,1.645,1.645,0,0,0,.631-1.883,15.789,15.789,0,0,0-1.637-3.093" transform="translate(-250.392 -251.274)" fill="#37338d"/>
  </g>
</svg>
